# xmcd
#
# Track frame offsets: 
#        150
#        13800
#        27150
#        52017
#        76395
#        88977
#        102095
#        114385
#        127292
#        148742
#        163350
#        185692
#        201300
#        213600
#        233072
#        256135
#        277507
#        300500
#        317935
#        331397
#
# Disc length: 4690 seconds
#
# Revision: 4
# Processed by: cddbd v1.5.2PL0 Copyright (c) Steve Scherf et al.
# Submitted via: ExactAudioCopy v1.3
#
DISCID=28125014
DTITLE=John Lee Hooker - The essential collection
DYEAR=1997
DGENRE=Blues
TTITLE0=One Bourbon, One Scotch, One beer
TTITLE1=Ground hog blues
TTITLE2=I'm bad like Jesse James
TTITLE3=Bluebird
TTITLE4=Leave my wife alone
TTITLE5=Down at the landing
TTITLE6=Walkin' the boogie
TTITLE7=Mr. Lucky
TTITLE8=Lead me (You can lead me baby)
TTITLE9=Sugar mama
TTITLE10=T.B. sheets
TTITLE11=I can't quit you
TTITLE12=I'm in the mood
TTITLE13=Shake it baby
TTITLE14=It serves you right to suffer
TTITLE15=Bang bang bang bang
TTITLE16=Tantalizing with the blues
TTITLE17=Peace lovin' man
TTITLE18=Stella Mae
TTITLE19=This land is nobody's land
EXTD=
EXTT0=
EXTT1=
EXTT2=
EXTT3=
EXTT4=
EXTT5=
EXTT6=
EXTT7=
EXTT8=
EXTT9=
EXTT10=
EXTT11=
EXTT12=
EXTT13=
EXTT14=
EXTT15=
EXTT16=
EXTT17=
EXTT18=
EXTT19=
PLAYORDER=
